# xmcd
#
# Track frame offsets:
#	150
#	39772
#	62204
#	96223
#	144113
#	217317
#	312331
#
# Disc length: 4523 seconds
#
# Revision: 1
# Processed by: cddbd v1.5.2PL0 Copyright (c) Steve Scherf et al.
# Submitted via: audiograbber 1.83.01
#
DISCID=6011a907
DTITLE=Grateful Dead - 73-03-15 Nassau Veterans Memorial Coliseum, Uniondale NY
DYEAR=1900
DGENRE=
TTITLE0=Sugaree
TTITLE1=Jack Straw
TTITLE2=Stella Blue
TTITLE3=Truckin'
TTITLE4=The Other One
TTITLE5=Eyes Of The World
TTITLE6=China Doll
EXTD=
EXTT0=
EXTT1=
EXTT2=
EXTT3=
EXTT4=
EXTT5=
EXTT6=
PLAYORDER=
